<svg width="120" height="120" viewBox="0 0 120 120" fill="none" xmlns="http://www.w3.org/2000/svg">
<path d="M26.25 39.375C29.2167 39.375 32.1168 38.4953 34.5836 36.847C37.0503 35.1988 38.9729 32.8562 40.1082 30.1153C41.2435 27.3744 41.5406 24.3584 40.9618 21.4487C40.383 18.5389 38.9544 15.8662 36.8566 13.7684C34.7588 11.6706 32.0861 10.242 29.1764 9.66323C26.2666 9.08445 23.2506 9.3815 20.5098 10.5168C17.7689 11.6521 15.4262 13.5747 13.778 16.0415C12.1297 18.5082 11.25 21.4083 11.25 24.375C11.2545 28.3519 12.8363 32.1646 15.6483 34.9767C18.4604 37.7888 22.2731 39.3705 26.25 39.375ZM26.25 13.125C28.475 13.125 30.6501 13.7848 32.5002 15.021C34.3502 16.2571 35.7922 18.0141 36.6437 20.0698C37.4951 22.1255 37.7179 24.3875 37.2838 26.5698C36.8498 28.7521 35.7783 30.7566 34.205 32.33C32.6316 33.9033 30.6271 34.9748 28.4448 35.4088C26.2625 35.8429 24.0005 35.6201 21.9448 34.7687C19.8891 33.9172 18.1321 32.4752 16.896 30.6252C15.6598 28.7751 15 26.6 15 24.375C15.0032 21.3923 16.1895 18.5327 18.2986 16.4236C20.4077 14.3145 23.2673 13.1282 26.25 13.125ZM93.75 39.375C96.7167 39.375 99.6168 38.4953 102.084 36.847C104.55 35.1988 106.473 32.8562 107.608 30.1153C108.744 27.3744 109.041 24.3584 108.462 21.4487C107.883 18.5389 106.454 15.8662 104.357 13.7684C102.259 11.6706 99.5861 10.242 96.6764 9.66323C93.7666 9.08445 90.7506 9.3815 88.0098 10.5168C85.2689 11.6521 82.9262 13.5747 81.278 16.0415C79.6297 18.5082 78.75 21.4083 78.75 24.375C78.7545 28.3519 80.3363 32.1646 83.1483 34.9767C85.9604 37.7888 89.7731 39.3705 93.75 39.375ZM93.75 13.125C95.975 13.125 98.1501 13.7848 100 15.021C101.85 16.2571 103.292 18.0141 104.144 20.0698C104.995 22.1255 105.218 24.3875 104.784 26.5698C104.35 28.7521 103.278 30.7566 101.705 32.33C100.132 33.9033 98.1271 34.9748 95.9448 35.4088C93.7625 35.8429 91.5005 35.6201 89.4448 34.7687C87.3892 33.9172 85.6321 32.4752 84.396 30.6252C83.1598 28.7751 82.5 26.6 82.5 24.375C82.5032 21.3923 83.6895 18.5327 85.7986 16.4236C87.9077 14.3145 90.7673 13.1282 93.75 13.125ZM60 39.375C62.9667 39.375 65.8668 38.4953 68.3336 36.847C70.8003 35.1988 72.7229 32.8562 73.8582 30.1153C74.9935 27.3744 75.2906 24.3584 74.7118 21.4487C74.133 18.5389 72.7044 15.8662 70.6066 13.7684C68.5088 11.6706 65.8361 10.242 62.9264 9.66323C60.0166 9.08445 57.0006 9.3815 54.2598 10.5168C51.5189 11.6521 49.1762 13.5747 47.528 16.0415C45.8797 18.5082 45 21.4083 45 24.375C45.0045 28.3519 46.5863 32.1646 49.3983 34.9767C52.2104 37.7888 56.0231 39.3705 60 39.375ZM60 13.125C62.225 13.125 64.4001 13.7848 66.2502 15.021C68.1002 16.2571 69.5422 18.0141 70.3937 20.0698C71.2451 22.1255 71.4679 24.3875 71.0338 26.5698C70.5998 28.7521 69.5283 30.7566 67.955 32.33C66.3816 33.9033 64.3771 34.9748 62.1948 35.4088C60.0125 35.8429 57.7505 35.6201 55.6948 34.7687C53.6391 33.9172 51.8821 32.4752 50.646 30.6252C49.4098 28.7751 48.75 26.6 48.75 24.375C48.7532 21.3923 49.9395 18.5327 52.0486 16.4236C54.1577 14.3145 57.0173 13.1282 60 13.125ZM26.25 48.75C23.2833 48.75 20.3832 49.6297 17.9165 51.278C15.4497 52.9262 13.5271 55.2689 12.3918 58.0098C11.2565 60.7506 10.9594 63.7666 11.5382 66.6764C12.117 69.5861 13.5456 72.2588 15.6434 74.3566C17.7412 76.4544 20.4139 77.883 23.3237 78.4618C26.2334 79.0406 29.2494 78.7435 31.9903 77.6082C34.7312 76.4729 37.0738 74.5503 38.722 72.0836C40.3703 69.6168 41.25 66.7167 41.25 63.75C41.2455 59.7731 39.6638 55.9604 36.8517 53.1483C34.0396 50.3363 30.2269 48.7545 26.25 48.75ZM26.25 75C24.025 75 21.8499 74.3402 19.9998 73.104C18.1498 71.8679 16.7078 70.1109 15.8564 68.0552C15.0049 65.9995 14.7821 63.7375 15.2162 61.5552C15.6503 59.373 16.7217 57.3684 18.2951 55.7951C19.8684 54.2217 21.873 53.1503 24.0552 52.7162C26.2375 52.2821 28.4995 52.5049 30.5552 53.3564C32.6109 54.2078 34.3679 55.6498 35.604 57.4998C36.8402 59.3499 37.5 61.525 37.5 63.75C37.4968 66.7327 36.3105 69.5923 34.2014 71.7014C32.0923 73.8105 29.2327 74.9968 26.25 75ZM93.75 78.75C96.7167 78.75 99.6168 77.8703 102.084 76.2221C104.55 74.5738 106.473 72.2311 107.608 69.4903C108.744 66.7494 109.041 63.7334 108.462 60.8237C107.883 57.9139 106.454 55.2412 104.357 53.1434C102.259 51.0456 99.5861 49.617 96.6764 49.0382C93.7666 48.4594 90.7506 48.7565 88.0098 49.8918C85.2689 51.0271 82.9262 52.9497 81.278 55.4165C79.6297 57.8832 78.75 60.7833 78.75 63.75C78.7545 67.7269 80.3363 71.5396 83.1483 74.3517C85.9604 77.1638 89.7731 78.7455 93.75 78.75ZM93.75 52.5C95.975 52.5 98.1501 53.1598 100 54.396C101.85 55.6321 103.292 57.3891 104.144 59.4448C104.995 61.5005 105.218 63.7625 104.784 65.9448C104.35 68.1271 103.278 70.1316 101.705 71.705C100.132 73.2783 98.1271 74.3498 95.9448 74.7838C93.7625 75.2179 91.5005 74.9951 89.4448 74.1437C87.3892 73.2922 85.6321 71.8502 84.396 70.0002C83.1598 68.1501 82.5 65.975 82.5 63.75C82.5032 60.7673 83.6895 57.9077 85.7986 55.7986C87.9077 53.6895 90.7673 52.5032 93.75 52.5ZM60 78.75C62.9667 78.75 65.8668 77.8703 68.3336 76.2221C70.8003 74.5738 72.7229 72.2311 73.8582 69.4903C74.9935 66.7494 75.2906 63.7334 74.7118 60.8237C74.133 57.9139 72.7044 55.2412 70.6066 53.1434C68.5088 51.0456 65.8361 49.617 62.9264 49.0382C60.0166 48.4594 57.0006 48.7565 54.2598 49.8918C51.5189 51.0271 49.1762 52.9497 47.528 55.4165C45.8797 57.8832 45 60.7833 45 63.75C45.0045 67.7269 46.5863 71.5396 49.3983 74.3517C52.2104 77.1638 56.0231 78.7455 60 78.75ZM60 52.5C62.225 52.5 64.4001 53.1598 66.2502 54.396C68.1002 55.6321 69.5422 57.3891 70.3937 59.4448C71.2451 61.5005 71.4679 63.7625 71.0338 65.9448C70.5998 68.1271 69.5283 70.1316 67.955 71.705C66.3816 73.2783 64.3771 74.3498 62.1948 74.7838C60.0125 75.2179 57.7505 74.9951 55.6948 74.1437C53.6391 73.2922 51.8821 71.8502 50.646 70.0002C49.4098 68.1501 48.75 65.975 48.75 63.75C48.7532 60.7673 49.9395 57.9077 52.0486 55.7986C54.1577 53.6895 57.0173 52.5032 60 52.5Z" fill="white"/>
<path d="M5.64844 71.25H9.07687C8.54545 70.046 8.1435 68.789 7.87781 67.5H5.64844C5.16365 67.5173 4.69175 67.3418 4.33598 67.012C3.98021 66.6823 3.76952 66.225 3.75 65.7403V49.7691C3.75 43.7672 8.38688 39.5503 15.0684 39.3909C13.7707 38.4257 12.6024 37.2977 11.5922 36.0347C4.695 37.4878 0 42.8109 0 49.7691V65.7403C0.020509 67.2193 0.626612 68.6298 1.68544 69.6626C2.74426 70.6954 4.1694 71.2663 5.64844 71.25ZM45.3422 36.0347C39.4894 37.2675 35.235 41.2931 34.0762 46.7344C35.3047 47.3024 36.4681 48.0018 37.5459 48.8203C38.01 43.3284 42.4959 39.5419 48.8184 39.39C47.5207 38.4247 46.3524 37.2977 45.3422 36.0347ZM5.64844 106.875C5.16365 106.892 4.69175 106.717 4.33598 106.387C3.98021 106.057 3.76952 105.6 3.75 105.115V89.1441C3.75 83.1422 8.38688 78.9253 15.0684 78.7659C13.7707 77.8007 12.6024 76.6727 11.5922 75.4097C4.695 76.8628 0 82.1859 0 89.1441V105.115C0.020509 106.594 0.626612 108.005 1.68544 109.038C2.74426 110.07 4.1694 110.641 5.64844 110.625H31.8628C31.0227 109.519 30.4456 108.237 30.1753 106.875H5.64844ZM108.408 36.0347C107.398 37.2977 106.229 38.4257 104.932 39.3909C111.613 39.5503 116.25 43.7672 116.25 49.7691V65.7403C116.23 66.225 116.02 66.6823 115.664 67.012C115.308 67.3418 114.836 67.5173 114.352 67.5H112.122C111.856 68.789 111.455 70.046 110.923 71.25H114.352C115.831 71.2663 117.256 70.6954 118.315 69.6626C119.373 68.6298 119.979 67.2193 120 65.7403V49.7691C120 42.8109 115.305 37.4878 108.408 36.0347ZM108.408 75.4097C107.398 76.6727 106.229 77.8007 104.932 78.7659C111.613 78.9253 116.25 83.1422 116.25 89.1441V105.115C116.23 105.6 116.02 106.057 115.664 106.387C115.308 106.717 114.836 106.892 114.352 106.875H89.8247C89.5544 108.237 88.9773 109.519 88.1372 110.625H114.352C115.831 110.641 117.256 110.07 118.315 109.038C119.373 108.005 119.979 106.594 120 105.115V89.1441C120 82.1859 115.305 76.8628 108.408 75.4097ZM74.6578 75.4097C73.6476 76.6727 72.4793 77.8007 71.1816 78.7659C77.8631 78.9244 82.5 83.1413 82.5 89.1431V105.114C82.4807 105.599 82.2701 106.057 81.9143 106.387C81.5585 106.717 81.0865 106.892 80.6016 106.875H39.3984C38.9136 106.892 38.4418 106.717 38.086 106.387C37.7302 106.057 37.5195 105.6 37.5 105.115V89.1441C37.5 83.1422 42.1369 78.9253 48.8184 78.7659C47.5207 77.8007 46.3524 76.6727 45.3422 75.4097C38.445 76.8628 33.75 82.1859 33.75 89.1441V105.115C33.7705 106.594 34.3766 108.005 35.4354 109.038C36.4943 110.07 37.9194 110.641 39.3984 110.625H80.6016C82.0806 110.641 83.5057 110.07 84.5646 109.038C85.6234 108.005 86.2295 106.594 86.25 105.115V89.1441C86.25 82.1859 81.555 76.8628 74.6578 75.4097ZM82.4541 48.8203C83.5316 48.0018 84.6947 47.3024 85.9228 46.7344C84.765 41.2931 80.5106 37.2675 74.6578 36.0347C73.6476 37.2977 72.4793 38.4257 71.1816 39.3909C77.505 39.5419 81.99 43.3284 82.4541 48.8203Z" fill="white"/>
</svg>
