<svg width="120" height="120" viewBox="0 0 120 120" fill="none" xmlns="http://www.w3.org/2000/svg">
<path d="M60 45C60.6631 45 61.2989 44.7366 61.7678 44.2678C62.2366 43.7989 62.5 43.163 62.5 42.5C62.5 41.837 62.2366 41.2011 61.7678 40.7322C61.2989 40.2634 60.6631 40 60 40C56.0444 40 52.1776 41.173 48.8886 43.3706C45.5996 45.5682 43.0362 48.6918 41.5224 52.3463C40.0087 56.0009 39.6126 60.0222 40.3843 63.9018C41.156 67.7814 43.0608 71.3451 45.8579 74.1421C48.6549 76.9392 52.2186 78.844 56.0982 79.6157C59.9778 80.3874 63.9992 79.9913 67.6537 78.4776C71.3082 76.9638 74.4318 74.4004 76.6294 71.1114C78.827 67.8224 80 63.9556 80 60C80 59.337 79.7366 58.7011 79.2678 58.2322C78.7989 57.7634 78.1631 57.5 77.5 57.5C76.837 57.5 76.2011 57.7634 75.7322 58.2322C75.2634 58.7011 75 59.337 75 60C75 62.9667 74.1203 65.8668 72.4721 68.3336C70.8238 70.8003 68.4812 72.7229 65.7403 73.8582C62.9994 74.9935 59.9834 75.2906 57.0737 74.7118C54.1639 74.133 51.4912 72.7044 49.3934 70.6066C47.2956 68.5088 45.867 65.8361 45.2882 62.9264C44.7095 60.0166 45.0065 57.0006 46.1418 54.2597C47.2771 51.5189 49.1997 49.1762 51.6665 47.528C54.1332 45.8797 57.0333 45 60 45Z" fill="white"/>
<path d="M107.7 45.1512C107.493 44.5279 107.05 44.0107 106.466 43.711C105.882 43.4113 105.204 43.3533 104.577 43.5493C103.951 43.7454 103.426 44.1799 103.117 44.7591C102.808 45.3383 102.739 46.0158 102.925 46.6455C105.954 56.2918 105.66 66.6754 102.09 76.135C98.5208 85.5947 91.8814 93.5837 83.2346 98.8239C74.5878 104.064 64.4332 106.253 54.3955 105.039C44.3578 103.826 35.017 99.2814 27.8676 92.132C20.7182 84.9827 16.1734 75.6419 14.9602 65.6042C13.747 55.5665 15.9356 45.4119 21.1758 36.7651C26.416 28.1182 34.405 21.4789 43.8646 17.9092C53.3243 14.3395 63.7079 14.0458 73.3542 17.075C73.9851 17.2652 74.6655 17.1988 75.2477 16.8903C75.83 16.5818 76.2671 16.0561 76.464 15.4273C76.6609 14.7985 76.6019 14.1174 76.2996 13.5318C75.9974 12.9463 75.4763 12.5037 74.8497 12.3C64.1395 8.9398 52.6118 9.26856 42.1105 13.2337C31.6092 17.1988 22.7411 24.5712 16.9247 34.1716C11.1082 43.772 8.67945 55.0457 10.0269 66.1894C11.3744 77.3332 16.4202 87.7031 24.3573 95.6405C32.2943 103.578 42.6641 108.624 53.8078 109.972C64.9515 111.32 76.2253 108.892 85.8259 103.075C95.4265 97.2593 102.799 88.3915 106.765 77.8904C110.73 67.3892 111.059 55.8616 107.7 45.1512Z" fill="white"/>
<path d="M64.7608 27.8467C64.7671 27.1608 64.5123 26.498 64.0481 25.993C63.5838 25.4879 62.9449 25.1783 62.2608 25.127C61.5138 25.0635 60.7665 25 60 25C53.0777 25 46.3108 27.0527 40.5551 30.8986C34.7993 34.7444 30.3133 40.2107 27.6642 46.6061C25.0152 53.0015 24.322 60.0388 25.6725 66.8282C27.023 73.6175 30.3564 79.8539 35.2513 84.7487C40.1461 89.6436 46.3825 92.977 53.1719 94.3275C59.9612 95.678 66.9985 94.9848 73.3939 92.3358C79.7893 89.6867 85.2556 85.2007 89.1015 79.445C92.9473 73.6892 95 66.9223 95 60C95 59.0958 94.9446 58.1924 94.834 57.295C94.7856 56.9622 94.6707 56.6424 94.4963 56.3549C94.3219 56.0673 94.0915 55.8176 93.8187 55.6208C93.546 55.424 93.2365 55.284 92.9085 55.2091C92.5806 55.1342 92.241 55.1259 91.9099 55.1848C91.5787 55.2437 91.2628 55.3685 90.9808 55.5519C90.6988 55.7352 90.4565 55.9734 90.2684 56.2522C90.0802 56.531 89.95 56.8447 89.8854 57.1748C89.8208 57.5049 89.8233 57.8446 89.8925 58.1737C89.9463 58.7792 90 59.38 90 59.9987C90.0003 65.9322 88.241 71.7326 84.9447 76.6662C81.6484 81.5998 76.9631 85.4452 71.4814 87.716C65.9996 89.9868 59.9676 90.5811 54.1481 89.4237C48.3286 88.2663 42.983 85.4092 38.7873 81.2136C34.5916 77.0181 31.7342 71.6726 30.5765 65.8532C29.4189 60.0337 30.0129 54.0016 32.2835 48.5198C34.5541 43.0379 38.3993 38.3525 43.3328 35.056C48.2663 31.7595 54.0665 30 60 30C60.62 30 61.2208 30.0538 61.825 30.1075L62.2938 30.1465C62.6073 30.1598 62.9204 30.1107 63.2148 30.0019C63.5092 29.8932 63.779 29.727 64.0086 29.513C64.2382 29.299 64.4229 29.0414 64.552 28.7554C64.6811 28.4693 64.7521 28.1605 64.7608 27.8467Z" fill="white"/>
<path d="M74.9995 32.5V41.4647L58.232 58.2325C57.9932 58.4631 57.8027 58.739 57.6717 59.044C57.5407 59.349 57.4717 59.677 57.4688 60.009C57.466 60.3409 57.5292 60.6701 57.6549 60.9774C57.7806 61.2846 57.9663 61.5637 58.201 61.7985C58.4357 62.0332 58.7148 62.2188 59.0221 62.3445C59.3293 62.4702 59.6585 62.5335 59.9905 62.5306C60.3224 62.5277 60.6505 62.4588 60.9555 62.3277C61.2605 62.1967 61.5364 62.0063 61.767 61.7675L78.5347 45H87.4995C87.8278 45 88.1528 44.9353 88.4561 44.8096C88.7594 44.684 89.0349 44.4997 89.267 44.2675L104.267 29.2675C104.616 28.9179 104.855 28.4724 104.951 27.9876C105.047 27.5027 104.998 27.0001 104.809 26.5434C104.619 26.0866 104.299 25.6962 103.888 25.4215C103.477 25.1468 102.994 25.0001 102.499 25H94.9995V17.5C94.9994 17.0056 94.8527 16.5224 94.578 16.1113C94.3033 15.7003 93.9129 15.38 93.4561 15.1908C92.9994 15.0016 92.4968 14.9521 92.0119 15.0485C91.527 15.1449 91.0816 15.383 90.732 15.7325L75.732 30.7325C75.4997 30.9645 75.3155 31.2401 75.1898 31.5433C75.0641 31.8466 74.9994 32.1717 74.9995 32.5ZM79.9995 33.5352L89.9995 23.5352V27.5C89.9995 28.163 90.2629 28.7989 90.7317 29.2678C91.2005 29.7366 91.8364 30 92.4995 30H96.4642L86.4642 40H79.9995V33.5352Z" fill="white"/>
</svg>
