<svg width="120" height="120" viewBox="0 0 120 120" fill="none" xmlns="http://www.w3.org/2000/svg">
<path d="M103.118 3.98436H27.3795C25.7579 3.97952 24.1514 4.29424 22.6515 4.91053C21.1517 5.52683 19.788 6.43262 18.6384 7.57614C17.4887 8.71967 16.5757 10.0785 15.9514 11.575C15.3271 13.0716 15.0038 14.6764 15 16.298V103.271C15 103.313 15.0052 103.355 15.008 103.397C15.0054 103.498 15.0061 103.571 15.0061 103.673C15.0114 106.95 16.3177 110.091 18.638 112.406C20.9583 114.72 24.1027 116.019 27.3799 116.016H97.5178C97.76 116.022 98.0009 115.979 98.2263 115.891C98.4518 115.802 98.6572 115.669 98.8304 115.5C99.0035 115.331 99.141 115.128 99.2345 114.905C99.3281 114.681 99.3758 114.441 99.375 114.199V95.1562H103.118C103.623 95.1393 104.102 94.9261 104.454 94.562C104.805 94.1979 105.001 93.7113 105 93.2053V5.80077C104.998 5.55721 104.947 5.31649 104.851 5.0927C104.755 4.86891 104.615 4.66654 104.44 4.49741C104.265 4.32829 104.058 4.19581 103.83 4.10771C103.603 4.01962 103.361 3.97769 103.118 3.98436ZM18.75 16.298C18.7533 15.1687 18.9792 14.0512 19.4148 13.0094C19.8504 11.9676 20.4872 11.022 21.2888 10.2265C22.0903 9.43112 23.0408 8.80158 24.0859 8.37394C25.1311 7.9463 26.2502 7.72896 27.3795 7.73436H27.8906V91.4062H27.3799C24.169 91.398 21.0784 92.627 18.75 94.838V16.298ZM95.625 112.266H27.3799C25.1111 112.266 22.9352 111.364 21.3308 109.76C19.7265 108.156 18.8252 105.98 18.8252 103.711C18.8252 101.442 19.7265 99.2662 21.3308 97.6618C22.9352 96.0575 25.1111 95.1562 27.3799 95.1562H95.625V112.266ZM101.25 91.4062H31.6406V7.73436H101.25V91.4062Z" fill="white"/>
<path d="M36.2546 73.9612C38.7338 73.9612 39.9015 74.516 41.2538 75.1584C42.7927 75.8894 44.5372 76.7184 47.8618 76.7184C51.1864 76.7184 52.9311 75.8894 54.47 75.1584C55.8223 74.516 56.99 73.9612 59.469 73.9612C61.948 73.9612 63.1161 74.516 64.4682 75.1584C66.0073 75.8894 67.7518 76.7184 71.0764 76.7184C74.401 76.7184 76.1457 75.8894 77.6858 75.1584C79.0381 74.516 80.206 73.9612 82.6852 73.9612C85.1645 73.9612 86.3328 74.516 87.6849 75.1584C89.2243 75.8894 90.9688 76.7184 94.2943 76.7184C94.7916 76.7184 95.2685 76.5209 95.6201 76.1693C95.9717 75.8176 96.1693 75.3407 96.1693 74.8434C96.1693 74.3462 95.9717 73.8692 95.6201 73.5176C95.2685 73.166 94.7916 72.9684 94.2943 72.9684C91.8151 72.9684 90.6472 72.4134 89.2948 71.7712C87.7557 71.04 86.011 70.2112 82.6855 70.2112C79.3599 70.2112 77.6162 71.04 76.0761 71.7712C74.7238 72.4134 73.5559 72.9684 71.0766 72.9684C68.5974 72.9684 67.4298 72.4134 66.0777 71.7712C64.5385 71.04 62.7941 70.2112 59.4683 70.2112C56.1425 70.2112 54.3992 71.04 52.8603 71.7712C51.5082 72.4134 50.3403 72.9684 47.8611 72.9684C45.3819 72.9684 44.2142 72.4134 42.8621 71.7712C41.323 71.04 39.5785 70.2112 36.2539 70.2112C35.7566 70.2112 35.2797 70.4088 34.9281 70.7604C34.5764 71.112 34.3789 71.589 34.3789 72.0862C34.3789 72.5835 34.5764 73.0604 34.9281 73.4121C35.2797 73.7637 35.7566 73.9612 36.2539 73.9612H36.2546Z" fill="white"/>
<path d="M36.2546 68.4469C38.7338 68.4469 39.9015 69.0017 41.2538 69.6441C42.7927 70.3753 44.5372 71.2041 47.8618 71.2041C51.1864 71.2041 52.9311 70.3753 54.47 69.6441C55.8223 69.0017 56.99 68.4469 59.4689 68.4469C61.9479 68.4469 63.1161 69.0017 64.4682 69.6441C66.0073 70.3753 67.7518 71.2041 71.0764 71.2041C74.401 71.2041 76.1457 70.3753 77.6858 69.6441C79.0381 69.0017 80.206 68.4469 82.6852 68.4469C85.1644 68.4469 86.3325 69.0017 87.6849 69.6441C89.2243 70.3753 90.9687 71.2041 94.2943 71.2041C94.7915 71.2041 95.2685 71.0065 95.6201 70.6549C95.9717 70.3033 96.1693 69.8263 96.1693 69.3291C96.1693 68.8318 95.9717 68.3549 95.6201 68.0032C95.2685 67.6516 94.7915 67.4541 94.2943 67.4541C93.7921 67.4558 93.2902 67.4293 92.791 67.3749C93.5844 65.7966 93.9939 64.0533 93.9863 62.2868V56.2212C93.9909 55.9788 93.9469 55.738 93.8567 55.513C93.7666 55.288 93.6323 55.0833 93.4616 54.9112C93.291 54.739 93.0875 54.6029 92.8633 54.5108C92.6391 54.4187 92.3987 54.3725 92.1563 54.375H67.0313V49.2188H83.7802C84.1075 49.2284 84.4313 49.1498 84.7177 48.9912C85.004 48.8325 85.2424 48.5996 85.4077 48.317C85.573 48.0344 85.6592 47.7125 85.6571 47.3851C85.655 47.0577 85.5648 46.7369 85.396 46.4564L67.0224 15.2433C66.8412 14.9381 66.5773 14.6906 66.2611 14.5295C65.9449 14.3683 65.5895 14.3001 65.2361 14.3328C64.8828 14.3656 64.5459 14.4978 64.2647 14.7143C63.9835 14.9307 63.7695 15.2225 63.6474 15.5557L63.335 16.4063H63.2813V16.5525L52.1754 46.7813C52.0713 47.0575 52.0371 47.3552 52.0759 47.6479C52.1146 47.9405 52.2252 48.2191 52.3976 48.4587C52.5728 48.7009 52.8044 48.8967 53.0724 49.0292C53.3403 49.1616 53.6365 49.2267 53.9354 49.2188H63.2813V54.375H38.9426C38.4446 54.3672 37.9637 54.5571 37.6055 54.9031C37.2472 55.2492 37.0407 55.7232 37.0313 56.2212V62.2868C37.0386 63.1092 37.1358 63.9282 37.3212 64.7295C36.9783 64.7091 36.6282 64.6969 36.2454 64.6969C35.9992 64.6975 35.7555 64.7466 35.5283 64.8414C35.301 64.9361 35.0946 65.0748 34.9209 65.2493C34.7473 65.4238 34.6097 65.6309 34.516 65.8586C34.4223 66.0863 34.3744 66.3302 34.375 66.5765C34.3756 66.8227 34.4247 67.0664 34.5195 67.2936C34.6143 67.5209 34.7529 67.7273 34.9274 67.9009C35.1019 68.0746 35.309 68.2122 35.5367 68.3059C35.7644 68.3996 36.0083 68.4475 36.2546 68.4469ZM67.0313 45.4688V22.6641L80.5013 45.4688H67.0313ZM56.6218 45.4688L63.2813 27.4268V45.4688H56.6218ZM40.7813 62.2868V58.125H90.2344V62.2868C90.2425 63.6662 89.8685 65.0209 89.154 66.2009C87.6422 65.4837 85.9151 64.6957 82.6728 64.6957C79.3479 64.6957 77.6103 65.5245 76.07 66.2557C74.7179 66.8981 73.5528 67.4529 71.0733 67.4529C68.5939 67.4529 67.4281 66.8981 66.076 66.2557C64.5368 65.5245 62.7931 64.6957 59.4682 64.6957C56.1434 64.6957 54.3997 65.5245 52.8605 66.2557C51.5084 66.8981 50.3407 67.4529 47.8615 67.4529C45.3823 67.4529 44.2149 66.8981 42.8625 66.2557C42.4751 66.0717 42.0563 65.8807 41.6204 65.6995C41.0746 64.6444 40.787 63.4747 40.7813 62.2868ZM94.2924 78.4826C91.8132 78.4826 90.6453 77.9278 89.2929 77.2854C87.7538 76.5541 86.0093 75.7254 82.6836 75.7254C79.3578 75.7254 77.6143 76.5541 76.0742 77.2854C74.7218 77.9278 73.554 78.4826 71.0747 78.4826C68.5955 78.4826 67.4279 77.9278 66.0757 77.2854C64.5366 76.5541 62.7922 75.7254 59.4664 75.7254C56.1406 75.7254 54.3973 76.5541 52.8584 77.2854C51.5063 77.9278 50.3384 78.4826 47.8592 78.4826C45.38 78.4826 44.2123 77.9278 42.8602 77.2854C41.3211 76.5541 39.5766 75.7254 36.252 75.7254C35.7547 75.7254 35.2778 75.9229 34.9262 76.2746C34.5745 76.6262 34.377 77.1031 34.377 77.6004C34.377 78.0977 34.5745 78.5746 34.9262 78.9262C35.2778 79.2779 35.7547 79.4754 36.252 79.4754C38.7312 79.4754 39.8989 80.0302 41.2512 80.6726C42.7901 81.4038 44.5346 82.2326 47.8592 82.2326C51.1838 82.2326 52.9285 81.4038 54.4674 80.6726C55.8197 80.0302 56.9874 79.4754 59.4664 79.4754C61.9454 79.4754 63.1135 80.0302 64.4656 80.6726C66.0047 81.4038 67.7492 82.2326 71.0738 82.2326C74.3984 82.2326 76.1431 81.4038 77.6832 80.6726C79.0355 80.0302 80.2034 79.4754 82.6826 79.4754C85.1618 79.4754 86.33 80.0302 87.6823 80.6728C89.2217 81.4038 90.9661 82.2326 94.2917 82.2326C94.789 82.2326 95.2659 82.035 95.6175 81.6834C95.9691 81.3318 96.1667 80.8549 96.1667 80.3576C96.1667 79.8603 95.9691 79.3834 95.6175 79.0318C95.2659 78.6801 94.789 78.4826 94.2917 78.4826H94.2924Z" fill="white"/>
</svg>
