<svg width="19" height="19" viewBox="0 0 19 19" fill="none" xmlns="http://www.w3.org/2000/svg">
<path fill-rule="evenodd" clip-rule="evenodd" d="M18.0893 0.244101C18.3156 0.470466 18.3923 0.806493 18.2866 1.10865L12.4532 17.7753C12.3403 18.0978 12.042 18.3187 11.7006 18.3327C11.3592 18.3466 11.0439 18.1507 10.9052 17.8385L7.702 10.6314L0.494889 7.4282C0.182655 7.28943 -0.0132313 6.97412 0.000696904 6.63272C0.0146251 6.29132 0.235545 5.99302 0.558046 5.88014L17.2247 0.0468079C17.5269 -0.0589466 17.8629 0.017736 18.0893 0.244101ZM9.32729 10.1846L11.5745 15.2408L15.5071 4.00476L9.32729 10.1846ZM14.3286 2.82625L3.09257 6.75886L8.14878 9.00607L14.3286 2.82625Z" fill="white"/>
</svg>
