<svg width="105" height="105" viewBox="0 0 105 105" fill="none" xmlns="http://www.w3.org/2000/svg">
<path opacity="0.99" d="M52.5 0.5C23.7911 0.5 0.5 23.7911 0.5 52.5C0.5 81.2089 23.7911 104.5 52.5 104.5C81.2089 104.5 104.5 81.2089 104.5 52.5C104.5 23.7911 81.2089 0.5 52.5 0.5ZM52.5 2.125C80.3314 2.125 102.875 24.6686 102.875 52.5C102.875 80.3314 80.3314 102.875 52.5 102.875C24.6686 102.875 2.125 80.3314 2.125 52.5C2.125 24.6686 24.6686 2.125 52.5 2.125ZM22.4375 18.7975C22.3773 18.7979 22.3174 18.805 22.2588 18.8186C22.079 18.8592 21.9184 18.9595 21.8033 19.1033C21.6881 19.2471 21.6253 19.4258 21.625 19.61V26.11C21.6249 26.2945 21.6876 26.4735 21.8028 26.6177C21.918 26.7618 22.0788 26.8624 22.2588 26.903C22.3174 26.9161 22.3774 26.9226 22.4375 26.9225H23.25V45.61C23.25 45.8255 23.3356 46.0322 23.488 46.1845C23.6403 46.3369 23.847 46.4225 24.0625 46.4225H24.875V67.5475C24.875 69.335 26.3375 70.7975 28.125 70.7975V82.6275C27.6338 82.9111 27.2254 83.3183 26.9403 83.8086C26.6552 84.2989 26.5034 84.8553 26.5 85.4225C26.5 87.21 27.9625 88.6725 29.75 88.6725H39.5C41.2875 88.6725 42.75 87.21 42.75 85.4225C42.7466 84.8553 42.5948 84.2989 42.3097 83.8086C42.0246 83.3183 41.6162 82.9111 41.125 82.6275V70.7975C42.3194 70.7975 43.3561 70.1377 43.92 69.1725H47.625V70.8008C47.625 71.6864 48.3644 72.4225 49.25 72.4225H55.75C56.6356 72.4225 57.375 71.6864 57.375 70.8008V69.1725H61.0816C61.6471 70.1361 62.6823 70.7943 63.875 70.7943V82.6259C63.3838 82.9095 62.9754 83.3166 62.6903 83.807C62.4052 84.2973 62.2534 84.8537 62.25 85.4209C62.25 87.2084 63.7125 88.6709 65.5 88.6709H75.25C77.0375 88.6709 78.5 87.2084 78.5 85.4209C78.4966 84.8537 78.3448 84.2973 78.0597 83.807C77.7746 83.3166 77.3662 82.9095 76.875 82.6259V70.7943C78.6625 70.7943 80.125 69.3317 80.125 67.5443V46.4225H80.9375C81.153 46.4225 81.3596 46.3369 81.512 46.1845C81.6644 46.0322 81.75 45.8255 81.75 45.61V26.9225H82.5625C82.6227 26.9216 82.6827 26.9139 82.7412 26.8997C82.9207 26.8593 83.0811 26.7591 83.1962 26.6157C83.3113 26.4722 83.3744 26.2939 83.375 26.11V19.61C83.3747 19.4258 83.3119 19.2471 83.1967 19.1033C83.0816 18.9595 82.921 18.8592 82.7412 18.8186C82.6826 18.805 82.6227 18.7979 82.5625 18.7975H58.1875C58.1273 18.7979 58.0674 18.805 58.0088 18.8186C57.829 18.8592 57.6684 18.9595 57.5533 19.1033C57.4381 19.2471 57.3753 19.4258 57.375 19.61V26.11C57.3749 26.2945 57.4376 26.4735 57.5528 26.6177C57.668 26.7618 57.8288 26.8624 58.0088 26.903C58.0674 26.9161 58.1274 26.9226 58.1875 26.9225H59V45.61C59 45.8255 59.0856 46.0322 59.238 46.1845C59.3903 46.3369 59.597 46.4225 59.8125 46.4225H60.625V48.0475H57.375V46.4225C57.375 45.5353 56.6356 44.7975 55.75 44.7975H49.25C48.3644 44.7975 47.625 45.5353 47.625 46.4225V48.0475H44.375V46.4225H45.1875C45.403 46.4225 45.6097 46.3369 45.762 46.1845C45.9144 46.0322 46 45.8255 46 45.61V26.9225H46.8125C46.8727 26.9216 46.9327 26.9139 46.9912 26.8997C47.1707 26.8593 47.3311 26.7591 47.4462 26.6157C47.5613 26.4722 47.6244 26.2939 47.625 26.11V19.61C47.6247 19.4258 47.5619 19.2471 47.4467 19.1033C47.3316 18.9595 47.171 18.8592 46.9912 18.8186C46.9326 18.805 46.8727 18.7979 46.8125 18.7975H22.4375ZM23.25 20.4225H46V25.2975H23.25V20.4225ZM59 20.4225H81.75V25.2975H59V20.4225ZM24.875 26.9225H44.375V44.7975H24.875V26.9225ZM60.625 26.9225H80.125V44.7975H60.625V26.9225ZM26.5 46.4225H42.75V67.5443C42.75 67.7523 42.7029 67.944 42.6362 68.1244C42.6299 68.1463 42.6245 68.1686 42.62 68.191C42.4959 68.4839 42.2875 68.7334 42.0213 68.9076C41.7551 69.0818 41.4431 69.1728 41.125 69.1693H28.125C27.2101 69.1693 26.5 68.4607 26.5 67.5475V64.6615H36.0875C36.303 64.6615 36.5097 64.5759 36.662 64.4235C36.8144 64.2712 36.9 64.0645 36.9 63.849V56.92C36.9 56.7045 36.8144 56.4978 36.662 56.3455C36.5097 56.1931 36.303 56.1075 36.0875 56.1075H26.5V46.4225ZM49.25 46.4225H55.75V70.8008H49.25V46.4225ZM62.25 46.4225H78.5V56.1059H68.9125C68.697 56.1059 68.4903 56.1915 68.338 56.3439C68.1856 56.4962 68.1 56.7029 68.1 56.9184V63.849C68.1 64.0645 68.1856 64.2712 68.338 64.4235C68.4903 64.5759 68.697 64.6615 68.9125 64.6615H78.5V67.5443C78.5029 67.7583 78.4627 67.9707 78.382 68.169C78.3014 68.3672 78.1817 68.5473 78.0302 68.6985C77.8787 68.8497 77.6984 68.969 77.5 69.0493C77.3015 69.1296 77.089 69.1693 76.875 69.166H63.875C63.5569 69.1696 63.2449 69.0785 62.9787 68.9043C62.7125 68.7301 62.5041 68.4807 62.38 68.1878C62.3734 68.1547 62.3647 68.1222 62.354 68.0903C62.2885 67.9155 62.2533 67.7308 62.25 67.5443V46.4225ZM44.375 49.6693H47.625V52.9193H44.375V49.6693ZM57.375 49.6693H60.625V52.9193H57.375V49.6693ZM44.375 54.5443H47.625V62.6693H44.375V54.5443ZM57.375 54.5443H60.625V62.6693H57.375V54.5443ZM26.5 57.7292H35.275V63.0365H26.5V57.7325V57.7292ZM69.725 57.7292H78.5V63.0365H69.725V57.7325V57.7292ZM44.375 64.2975H47.625V67.5475H44.375V64.2975ZM57.375 64.2975H60.625V67.5475H57.375V64.2975ZM29.75 70.7975H39.5V82.1725H29.75V70.7975ZM65.5 70.7975H75.25V82.1725H65.5V70.7975ZM29.75 83.7975H39.5C40.4149 83.7975 41.125 84.5076 41.125 85.4225C41.125 86.3357 40.4149 87.0475 39.5 87.0475H29.75C28.8351 87.0475 28.125 86.3357 28.125 85.4225C28.125 84.5076 28.8351 83.7975 29.75 83.7975ZM65.5 83.7975H75.25C76.1649 83.7975 76.875 84.5076 76.875 85.4225C76.875 86.3357 76.1649 87.0475 75.25 87.0475H65.5C64.5851 87.0475 63.875 86.3357 63.875 85.4225C63.875 84.5076 64.5851 83.7975 65.5 83.7975Z" fill="white" stroke="white"/>
</svg>
